<svg width="15" height="15" viewBox="0 0 15 15" fill="none" xmlns="http://www.w3.org/2000/svg">
<path fill-rule="evenodd" clip-rule="evenodd" d="M7.94721 0.164533C7.66569 0.0237689 7.33431 0.0237692 7.05279 0.164533L0.552786 3.41453C0.214002 3.58392 0 3.93019 0 4.30896V11.9999C0 12.5522 0.447715 12.9999 1 12.9999H14C14.5523 12.9999 15 12.5522 15 11.9999V4.30896C15 3.93019 14.786 3.58392 14.4472 3.41453L7.94721 0.164533ZM13.5689 4.09343L7.5 1.05896L1.43105 4.09343L7.5 7.2913L13.5689 4.09343ZM1 4.8836V11.9999H14V4.8836L7.70977 8.19806C7.57848 8.26725 7.42152 8.26725 7.29023 8.19806L1 4.8836Z" fill="white"/>
</svg>
