<svg width="15" height="15" viewBox="0 0 15 15" fill="none" xmlns="http://www.w3.org/2000/svg">
<path fill-rule="evenodd" clip-rule="evenodd" d="M8.4449 0.608613C8.0183 -0.107168 6.9817 -0.107168 6.55509 0.608614L0.161178 11.3367C-0.275824 12.0699 0.252503 12.9998 1.10608 12.9998H13.8939C14.7475 12.9998 15.2758 12.0699 14.8388 11.3367L8.4449 0.608613ZM7.4141 1.12058C7.45288 1.05551 7.54712 1.05551 7.5859 1.12058L13.9798 11.8486C14.0196 11.9153 13.9715 11.9998 13.8939 11.9998H1.10608C1.02849 11.9998 0.980454 11.9153 1.02018 11.8486L7.4141 1.12058ZM6.8269 4.48596C6.81221 4.10408 7.11783 3.78648 7.5 3.78648C7.88217 3.78648 8.18778 4.10408 8.1731 4.48596L8.01921 8.48686C8.00848 8.76585 7.7792 8.98649 7.5 8.98649C7.2208 8.98649 6.99151 8.76585 6.98078 8.48686L6.8269 4.48596ZM8.24989 10.4758C8.24989 10.8901 7.9141 11.2258 7.49989 11.2258C7.08567 11.2258 6.74989 10.8901 6.74989 10.4758C6.74989 10.0616 7.08567 9.72584 7.49989 9.72584C7.9141 9.72584 8.24989 10.0616 8.24989 10.4758Z" fill="#FF6464"/>
</svg>
