<svg width="162" height="162" viewBox="0 0 162 162" fill="none" xmlns="http://www.w3.org/2000/svg">
<path d="M1 1H81H101V20.6V61H161V81V161H121L64.0667 101.933L1 41V1Z" fill="#50577A"/>
<path d="M111.666 50.3333V1L160.999 50.3333H111.666Z" fill="#50577A" stroke="black" stroke-width="0.266667"/>
<path d="M1 161V125.8L31.4 161H1Z" fill="#50577A" stroke="black" stroke-width="0.266667"/>
<path d="M1 61L61 121L101 161H141H121H101H81H61H41H21H81L1 81V61Z" fill="#50577A"/>
<path d="M1 98.5L38.5 136L63.5 161H88.5H76H63.5H51H38.5H26H13.5H51L1 111V98.5Z" fill="#50577A"/>
</svg>
