<svg width="250" height="150" viewBox="0 0 250 150" fill="none" xmlns="http://www.w3.org/2000/svg">
<path d="M15 50H40H46.25V56.125V68.75H65V75V100H52.5L34.7083 81.5417L15 62.5V50Z" fill="black"/>
<path d="M49.584 65.4167V50L65.0007 65.4167H49.584Z" fill="black" stroke="black" stroke-width="0.0833333"/>
<path d="M15 99.9995V88.9995L24.5 99.9995H15Z" fill="black" stroke="black" stroke-width="0.0833333"/>
<path d="M15 68.75L33.75 87.5L46.25 100H58.75H52.5H46.25H40H33.75H27.5H21.25H40L15 75V68.75Z" fill="black"/>
<path d="M15 80.4688L26.7188 92.1875L34.5312 100H42.3438H38.4375H34.5312H30.625H26.7188H22.8125H18.9062H30.625L15 84.375V80.4688Z" fill="black"/>
<path d="M92.5909 85.2983C91.0265 85.2983 89.6809 84.9669 88.554 84.304C87.4337 83.6345 86.572 82.7064 85.9688 81.5199C85.3722 80.3333 85.0739 78.9678 85.0739 77.4233C85.0739 75.8589 85.3755 74.4867 85.9787 73.3068C86.5885 72.1203 87.4536 71.1955 88.5739 70.5327C89.6941 69.8632 91.0265 69.5284 92.571 69.5284C93.9034 69.5284 95.0701 69.7704 96.071 70.2543C97.072 70.7382 97.8641 71.4176 98.4474 72.2926C99.0308 73.1676 99.3523 74.1951 99.4119 75.375H95.4148C95.3021 74.6127 95.0038 73.9995 94.5199 73.5355C94.0426 73.0649 93.4162 72.8295 92.6406 72.8295C91.9844 72.8295 91.411 73.0085 90.9205 73.3665C90.4366 73.7178 90.0587 74.2315 89.7869 74.9077C89.5152 75.5838 89.3793 76.4025 89.3793 77.3636C89.3793 78.3381 89.5118 79.1667 89.777 79.8494C90.0488 80.5322 90.4299 81.0526 90.9205 81.4105C91.411 81.7685 91.9844 81.9474 92.6406 81.9474C93.1245 81.9474 93.5587 81.848 93.9432 81.6491C94.3343 81.4503 94.6558 81.1619 94.9077 80.7841C95.1662 80.3996 95.3352 79.9389 95.4148 79.402H99.4119C99.3456 80.5687 99.0275 81.5961 98.4574 82.4844C97.8939 83.366 97.1151 84.0554 96.1207 84.5526C95.1264 85.0497 93.9498 85.2983 92.5909 85.2983ZM116.363 69.7273L111.023 85H106.25L100.911 69.7273H105.385L108.557 80.6548H108.716L111.878 69.7273H116.363ZM128.046 74.9574V78.3182H118.759V74.9574H128.046ZM131.735 85V64.6364H135.971V72.2926H136.1C136.285 71.8816 136.554 71.464 136.905 71.0398C137.263 70.6089 137.727 70.2509 138.297 69.9659C138.874 69.6742 139.59 69.5284 140.445 69.5284C141.559 69.5284 142.586 69.8201 143.527 70.4034C144.469 70.9801 145.221 71.8518 145.784 73.0185C146.348 74.1785 146.63 75.6335 146.63 77.3835C146.63 79.0871 146.355 80.5256 145.804 81.6989C145.261 82.8655 144.518 83.7505 143.577 84.3537C142.642 84.9503 141.595 85.2486 140.435 85.2486C139.613 85.2486 138.914 85.1127 138.337 84.8409C137.767 84.5691 137.3 84.2277 136.935 83.8168C136.57 83.3991 136.292 82.9782 136.1 82.554H135.911V85H131.735ZM135.881 77.3636C135.881 78.2718 136.007 79.0639 136.259 79.7401C136.511 80.4162 136.875 80.9432 137.353 81.321C137.83 81.6922 138.41 81.8778 139.093 81.8778C139.782 81.8778 140.365 81.6889 140.843 81.3111C141.32 80.9266 141.681 80.3963 141.926 79.7202C142.178 79.0374 142.304 78.2519 142.304 77.3636C142.304 76.482 142.182 75.7064 141.936 75.0369C141.691 74.3674 141.33 73.8437 140.853 73.4659C140.375 73.0881 139.789 72.8991 139.093 72.8991C138.403 72.8991 137.82 73.0814 137.343 73.446C136.872 73.8106 136.511 74.3277 136.259 74.9972C136.007 75.6667 135.881 76.4555 135.881 77.3636ZM159.25 78.4972V69.7273H163.486V85H159.419V82.2259H159.26C158.915 83.1207 158.342 83.84 157.54 84.3835C156.744 84.9271 155.773 85.1989 154.626 85.1989C153.606 85.1989 152.707 84.9669 151.932 84.5028C151.156 84.0388 150.55 83.3793 150.112 82.5241C149.681 81.669 149.463 80.6449 149.456 79.4517V69.7273H153.692V78.696C153.698 79.5975 153.94 80.3101 154.418 80.8338C154.895 81.3575 155.535 81.6193 156.337 81.6193C156.847 81.6193 157.324 81.5033 157.768 81.2713C158.213 81.0327 158.571 80.6813 158.842 80.2173C159.121 79.7533 159.257 79.1799 159.25 78.4972ZM166.874 85V69.7273H171.11V85H166.874ZM169.002 67.7585C168.372 67.7585 167.832 67.5497 167.381 67.1321C166.937 66.7079 166.715 66.2008 166.715 65.6108C166.715 65.0275 166.937 64.527 167.381 64.1094C167.832 63.6851 168.372 63.473 169.002 63.473C169.632 63.473 170.168 63.6851 170.613 64.1094C171.063 64.527 171.289 65.0275 171.289 65.6108C171.289 66.2008 171.063 66.7079 170.613 67.1321C170.168 67.5497 169.632 67.7585 169.002 67.7585ZM178.739 64.6364V85H174.503V64.6364H178.739ZM187.76 85.2486C186.6 85.2486 185.549 84.9503 184.608 84.3537C183.673 83.7505 182.931 82.8655 182.38 81.6989C181.837 80.5256 181.565 79.0871 181.565 77.3835C181.565 75.6335 181.847 74.1785 182.41 73.0185C182.974 71.8518 183.723 70.9801 184.657 70.4034C185.599 69.8201 186.629 69.5284 187.75 69.5284C188.605 69.5284 189.317 69.6742 189.887 69.9659C190.464 70.2509 190.928 70.6089 191.279 71.0398C191.637 71.464 191.909 71.8816 192.095 72.2926H192.224V64.6364H196.45V85H192.274V82.554H192.095C191.896 82.9782 191.614 83.3991 191.25 83.8168C190.892 84.2277 190.424 84.5691 189.848 84.8409C189.278 85.1127 188.582 85.2486 187.76 85.2486ZM189.102 81.8778C189.785 81.8778 190.361 81.6922 190.832 81.321C191.309 80.9432 191.674 80.4162 191.926 79.7401C192.184 79.0639 192.314 78.2718 192.314 77.3636C192.314 76.4555 192.188 75.6667 191.936 74.9972C191.684 74.3277 191.319 73.8106 190.842 73.446C190.365 73.0814 189.785 72.8991 189.102 72.8991C188.406 72.8991 187.819 73.0881 187.342 73.4659C186.865 73.8437 186.503 74.3674 186.258 75.0369C186.013 75.7064 185.89 76.482 185.89 77.3636C185.89 78.2519 186.013 79.0374 186.258 79.7202C186.51 80.3963 186.871 80.9266 187.342 81.3111C187.819 81.6889 188.406 81.8778 189.102 81.8778ZM206.893 85.2983C205.322 85.2983 203.969 84.9801 202.836 84.3438C201.709 83.7008 200.841 82.7926 200.231 81.6193C199.621 80.4394 199.316 79.044 199.316 77.4332C199.316 75.8622 199.621 74.4834 200.231 73.2969C200.841 72.1103 201.699 71.1856 202.806 70.5227C203.92 69.8598 205.226 69.5284 206.724 69.5284C207.731 69.5284 208.669 69.6908 209.538 70.0156C210.413 70.3338 211.175 70.8144 211.825 71.4574C212.481 72.1004 212.991 72.9091 213.356 73.8835C213.72 74.8513 213.903 75.9848 213.903 77.2841V78.4474H201.006V75.8224H209.915C209.915 75.2126 209.783 74.6723 209.518 74.2017C209.253 73.7311 208.885 73.3632 208.414 73.098C207.95 72.8262 207.41 72.6903 206.793 72.6903C206.15 72.6903 205.58 72.8395 205.083 73.1378C204.593 73.4295 204.208 73.8239 203.93 74.321C203.651 74.8116 203.509 75.3584 203.502 75.9616V78.4574C203.502 79.2131 203.641 79.866 203.92 80.4162C204.205 80.9664 204.606 81.3906 205.123 81.6889C205.64 81.9872 206.253 82.1364 206.962 82.1364C207.433 82.1364 207.864 82.0701 208.255 81.9375C208.646 81.8049 208.981 81.6061 209.259 81.3409C209.538 81.0758 209.75 80.7509 209.896 80.3665L213.813 80.625C213.614 81.5663 213.207 82.3883 212.59 83.0909C211.98 83.7869 211.192 84.3305 210.224 84.7216C209.263 85.1061 208.152 85.2983 206.893 85.2983ZM216.667 85V69.7273H220.773V72.392H220.933C221.211 71.4441 221.678 70.7282 222.335 70.2443C222.991 69.7538 223.746 69.5085 224.602 69.5085C224.814 69.5085 225.042 69.5218 225.288 69.5483C225.533 69.5748 225.748 69.6113 225.934 69.6577V73.4162C225.735 73.3565 225.46 73.3035 225.109 73.2571C224.757 73.2107 224.436 73.1875 224.144 73.1875C223.521 73.1875 222.964 73.3234 222.474 73.5952C221.99 73.8603 221.605 74.2315 221.32 74.7088C221.042 75.1861 220.903 75.7363 220.903 76.3594V85H216.667Z" fill="black"/>
</svg>
